<?xml version="1.0" standalone="no"?>
<!DOCTYPE svg PUBLIC "-//W3C//DTD SVG 20010904//EN"
 "http://www.w3.org/TR/2001/REC-SVG-20010904/DTD/svg10.dtd">
<svg version="1.0" xmlns="http://www.w3.org/2000/svg"
 width="16.000000pt" height="16.000000pt" viewBox="0 0 16.000000 16.000000"
 preserveAspectRatio="xMidYMid meet">

<g transform="translate(0.000000,16.000000) scale(0.100000,-0.100000)"
fill="#FF0000" stroke="none">
<path d="M50 150 c-11 -7 -3 -10 30 -10 33 0 41 3 30 10 -8 5 -22 10 -30 10
-8 0 -22 -5 -30 -10z"/>
<path d="M7 103 c-7 -17 -7 -31 3 -50 7 -16 15 -23 17 -15 3 7 22 12 48 12 46
0 69 17 63 47 -2 14 -16 19 -62 23 -54 5 -59 4 -69 -17z m43 -23 c0 -5 -4 -10
-10 -10 -5 0 -10 5 -10 10 0 6 5 10 10 10 6 0 10 -4 10 -10z"/>
<path d="M125 40 c-11 -5 -33 -9 -48 -9 -18 -1 -27 -6 -25 -13 8 -23 45 -20
74 6 31 27 31 30 -1 16z"/>
</g>
</svg>
